# xmcd CD database file
#
# Track frame offsets:
#	150
#	27429
#	32240
#	66198
#	69984
#	86952
#	91698
#	128422
#	132851
#	157526
#	168398
#
# Disc length: 2766 seconds
#
# Revision: 0
# Processed by: cddbd v1.5.2PL0 Copyright (c) Steve Scherf et al.
# Submitted via: CDex 1.51
#
DISCID=820acc0b
DTITLE=Sphinx Trio - Sweet Maladies CD1
DYEAR=2004
DGENRE=Jazz
TTITLE0=Toad Road
TTITLE1=Science Fiction Soundtrack I
TTITLE2=Seventh Heaven
TTITLE3=Science Fiction Soundtrack II
TTITLE4=Knip
TTITLE5=Science Fiction Soundtrack III
TTITLE6=A Song to Sing
TTITLE7=Science Fiction Soundtrack IV
TTITLE8=On/Off
TTITLE9=Science Fiction Soundtrack V
TTITLE10=Cantankerous Discombobulation
EXTD=YEAR: 2004
EXTT0=
EXTT1=
EXTT2=
EXTT3=
EXTT4=
EXTT5=
EXTT6=
EXTT7=
EXTT8=
EXTT9=
EXTT10=
PLAYORDER=
